####
#
# OBJ File Generated by Meshlab
#
####
# Object dragonflyBodyEyesMesh.obj
#
# Vertices: 101
# Faces: 163
#
####
mtllib ./dragonflyBodyEyesMesh.obj.mtl

vn 0.916615 -0.140949 -0.374099
v 0.025908 0.123350 0.119282 0.749020 0.749020 0.749020
vn 0.917359 -0.027105 -0.397138
v 0.025214 0.132249 0.116163 0.749020 0.749020 0.749020
vn 0.954357 0.074188 -0.289307
v 0.026966 0.138034 0.119932 0.749020 0.749020 0.749020
vn 0.873602 -0.312541 -0.373013
v 0.023506 0.116978 0.115800 0.749020 0.749020 0.749020
vn 0.917359 -0.027105 -0.397138
v 0.021508 0.134095 0.113447 0.749020 0.749020 0.749020
vn 0.877706 -0.240908 -0.414240
v 0.020076 0.119313 0.112059 0.749020 0.749020 0.749020
vn 0.833644 -0.443817 -0.328731
v 0.019304 0.109856 0.114197 0.749020 0.749020 0.749020
vn 0.911892 -0.377650 -0.160732
v 0.024422 0.113019 0.123421 0.749020 0.749020 0.749020
vn 0.843655 -0.499470 -0.196916
v 0.022177 0.107903 0.121469 0.749020 0.749020 0.749020
vn 0.819221 -0.537090 -0.201026
v 0.019838 0.104987 0.119621 0.749020 0.749020 0.749020
vn 0.832841 -0.553107 -0.021187
v 0.019715 0.103477 0.125742 0.749020 0.749020 0.749020
vn 0.895602 -0.363343 0.256670
v 0.023359 0.112536 0.133948 0.749020 0.749020 0.749020
vn 0.818162 -0.490908 0.299366
v 0.019422 0.106753 0.138433 0.749020 0.749020 0.749020
vn 0.838690 -0.540267 0.068632
v 0.021026 0.105736 0.130951 0.749020 0.749020 0.749020
vn 0.810233 -0.156323 0.564876
v 0.022208 0.126385 0.144825 0.749020 0.749020 0.749020
vn 0.834642 -0.238773 0.496347
v 0.023483 0.118536 0.139342 0.749020 0.749020 0.749020
vn 0.826089 -0.100358 0.554532
v 0.024481 0.132526 0.142011 0.749020 0.749020 0.749020
vn 0.819548 -0.285392 0.496883
v 0.020273 0.115222 0.142905 0.749020 0.749020 0.749020
vn 0.768268 -0.142991 0.623954
v 0.020117 0.128265 0.147489 0.749020 0.749020 0.749020
vn 0.953971 0.162356 -0.252151
v 0.025322 0.145432 0.118118 0.749020 0.749020 0.749020
vn 0.810913 -0.004384 0.585150
v 0.022852 0.140394 0.146627 0.749020 0.749020 0.749020
vn 0.792289 0.128514 0.596458
v 0.019937 0.143139 0.149369 0.749020 0.749020 0.749020
vn 0.955601 0.231588 -0.182191
v 0.027212 0.147306 0.123058 0.749020 0.749020 0.749020
vn 0.947256 0.304053 -0.101287
v 0.024606 0.154573 0.123298 0.749020 0.749020 0.749020
vn 0.935557 0.351150 -0.037775
v 0.027015 0.150951 0.128847 0.749020 0.749020 0.749020
vn 0.891632 0.434047 0.128820
v 0.024910 0.156294 0.131852 0.749020 0.749020 0.749020
vn 0.876851 0.460415 0.138380
v 0.019909 0.161053 0.128644 0.749020 0.749020 0.749020
vn 0.811361 0.512935 0.280341
v 0.020377 0.161379 0.135604 0.749020 0.749020 0.749020
vn 0.823460 0.120557 0.554418
v 0.024878 0.146186 0.142991 0.749020 0.749020 0.749020
vn 0.774469 0.267149 0.573437
v 0.023167 0.150514 0.145370 0.749020 0.749020 0.749020
vn 0.748838 0.332670 0.573212
v 0.020097 0.154662 0.146905 0.749020 0.749020 0.749020
vn 0.943952 0.166754 0.284864
v 0.026269 0.145955 0.136726 0.749020 0.749020 0.749020
vn 0.815188 0.455377 0.357910
v 0.023214 0.156080 0.140816 0.749020 0.749020 0.749020
vn 0.816916 -0.567728 -0.101656
v 0.017558 0.101588 0.124975 0.749020 0.749020 0.749020
vn 0.819221 -0.537090 -0.201026
v 0.016289 0.102190 0.118549 0.749020 0.749020 0.749020
vn 0.810794 -0.584280 0.035075
v 0.017294 0.101657 0.132941 0.749020 0.749020 0.749020
vn 0.818162 -0.490908 0.299366
v 0.016550 0.104032 0.139555 0.749020 0.749020 0.749020
vn 0.771880 -0.176611 0.610746
v 0.017369 0.126099 0.148658 0.749020 0.749020 0.749020
vn 0.805523 -0.378450 0.455970
v 0.015843 0.110751 0.145058 0.749020 0.749020 0.749020
vn 0.771880 -0.176611 0.610746
v 0.015216 0.124125 0.150634 0.749020 0.749020 0.749020
vn 0.761992 -0.066748 0.644138
v 0.016161 0.138466 0.152224 0.749020 0.749020 0.749020
vn 0.737030 0.249589 0.628086
v 0.016442 0.148727 0.151720 0.749020 0.749020 0.749020
vn 0.748838 0.332670 0.573212
v 0.015176 0.156030 0.149441 0.749020 0.749020 0.749020
vn 0.776229 0.467009 0.423523
v 0.016342 0.160836 0.142743 0.749020 0.749020 0.749020
vn 0.953971 0.162356 -0.252151
v 0.027332 0.139942 0.126415 0.749020 0.749020 0.749020
vn 0.964657 -0.202730 -0.168335
v 0.025864 0.120739 0.125018 0.749020 0.749020 0.749020
vn 0.936270 -0.196834 0.290955
v 0.025282 0.123538 0.133890 0.749020 0.749020 0.749020
vn -0.712202 -0.467931 -0.523267
v -0.012407 0.108565 0.111076 0.749020 0.749020 0.749020
vn -0.758945 -0.285209 -0.585371
v -0.015590 0.117823 0.109581 0.749020 0.749020 0.749020
vn -0.680777 0.008503 -0.732441
v -0.016418 0.129055 0.110605 0.749020 0.749020 0.749020
vn -0.669352 0.228329 -0.706989
v -0.013760 0.142599 0.112040 0.749020 0.749020 0.749020
vn -0.828190 0.027412 -0.559776
v -0.025214 0.132249 0.116163 0.749020 0.749020 0.749020
vn -0.890403 -0.082872 -0.447565
v -0.025908 0.123350 0.119282 0.749020 0.749020 0.749020
vn -0.869865 0.130729 -0.475652
v -0.026966 0.138034 0.119932 0.749020 0.749020 0.749020
vn -0.819789 -0.309486 -0.481835
v -0.023506 0.116978 0.115800 0.749020 0.749020 0.749020
vn -0.746169 0.066575 -0.662419
v -0.021508 0.134095 0.113447 0.749020 0.749020 0.749020
vn -0.782814 -0.187345 -0.593384
v -0.020076 0.119313 0.112059 0.749020 0.749020 0.749020
vn -0.745209 -0.418665 -0.519021
v -0.019304 0.109856 0.114197 0.749020 0.749020 0.749020
vn -0.908245 -0.380123 -0.174922
v -0.024422 0.113019 0.123421 0.749020 0.749020 0.749020
vn -0.835172 -0.502110 -0.224441
v -0.022177 0.107903 0.121469 0.749020 0.749020 0.749020
vn -0.786206 -0.520470 -0.333155
v -0.019838 0.104987 0.119621 0.749020 0.749020 0.749020
vn -0.831571 -0.554402 -0.033596
v -0.019715 0.103477 0.125742 0.749020 0.749020 0.749020
vn -0.818162 -0.490908 0.299366
v -0.019422 0.106753 0.138433 0.749020 0.749020 0.749020
vn -0.895602 -0.363343 0.256670
v -0.023359 0.112536 0.133948 0.749020 0.749020 0.749020
vn -0.838690 -0.540267 0.068632
v -0.021026 0.105736 0.130951 0.749020 0.749020 0.749020
vn -0.834642 -0.238773 0.496347
v -0.023483 0.118536 0.139342 0.749020 0.749020 0.749020
vn -0.810233 -0.156323 0.564876
v -0.022208 0.126385 0.144825 0.749020 0.749020 0.749020
vn -0.826089 -0.100358 0.554532
v -0.024481 0.132526 0.142011 0.749020 0.749020 0.749020
vn -0.819548 -0.285392 0.496883
v -0.020273 0.115222 0.142905 0.749020 0.749020 0.749020
vn -0.768267 -0.142991 0.623954
v -0.020117 0.128265 0.147489 0.749020 0.749020 0.749020
vn -0.844760 0.200858 -0.496021
v -0.025322 0.145432 0.118118 0.749020 0.749020 0.749020
vn -0.772949 0.202255 -0.601367
v -0.021473 0.144828 0.114907 0.749020 0.749020 0.749020
vn -0.810913 -0.004384 0.585150
v -0.022852 0.140394 0.146627 0.749020 0.749020 0.749020
vn -0.792289 0.128514 0.596458
v -0.019937 0.143139 0.149369 0.749020 0.749020 0.749020
vn -0.912696 0.257556 -0.317256
v -0.027212 0.147306 0.123058 0.749020 0.749020 0.749020
vn -0.792072 0.480631 -0.376318
v -0.024606 0.154573 0.123298 0.749020 0.749020 0.749020
vn -0.757292 0.377442 -0.532960
v -0.020642 0.151585 0.117320 0.749020 0.749020 0.749020
vn -0.916973 0.356347 -0.179379
v -0.027015 0.150951 0.128847 0.749020 0.749020 0.749020
vn -0.859771 0.510289 -0.019957
v -0.024910 0.156294 0.131852 0.749020 0.749020 0.749020
vn -0.819537 0.559471 -0.123903
v -0.019909 0.161053 0.128644 0.749020 0.749020 0.749020
vn -0.819234 0.560493 0.121261
v -0.020377 0.161379 0.135604 0.749020 0.749020 0.749020
vn -0.774469 0.267149 0.573437
v -0.023167 0.150514 0.145370 0.749020 0.749020 0.749020
vn -0.823460 0.120557 0.554418
v -0.024878 0.146186 0.142991 0.749020 0.749020 0.749020
vn -0.748838 0.332670 0.573212
v -0.020097 0.154662 0.146905 0.749020 0.749020 0.749020
vn -0.943952 0.166754 0.284864
v -0.026269 0.145955 0.136726 0.749020 0.749020 0.749020
vn -0.815268 0.462286 0.348754
v -0.023214 0.156080 0.140816 0.749020 0.749020 0.749020
vn -0.809897 -0.572352 -0.128374
v -0.017558 0.101588 0.124975 0.749020 0.749020 0.749020
vn -0.778265 -0.572420 -0.258147
v -0.016289 0.102190 0.118549 0.749020 0.749020 0.749020
vn -0.809878 -0.586149 0.022959
v -0.017294 0.101657 0.132941 0.749020 0.749020 0.749020
vn -0.818162 -0.490908 0.299366
v -0.016550 0.104032 0.139555 0.749020 0.749020 0.749020
vn -0.771880 -0.176611 0.610746
v -0.017369 0.126099 0.148658 0.749020 0.749020 0.749020
vn -0.805523 -0.378450 0.455970
v -0.015843 0.110751 0.145058 0.749020 0.749020 0.749020
vn -0.771880 -0.176611 0.610746
v -0.015216 0.124125 0.150634 0.749020 0.749020 0.749020
vn -0.761992 -0.066748 0.644138
v -0.016161 0.138466 0.152224 0.749020 0.749020 0.749020
vn -0.792072 0.480631 -0.376318
v -0.017323 0.158751 0.121747 0.749020 0.749020 0.749020
vn -0.737030 0.249589 0.628086
v -0.016442 0.148727 0.151720 0.749020 0.749020 0.749020
vn -0.748838 0.332670 0.573212
v -0.015176 0.156030 0.149441 0.749020 0.749020 0.749020
vn -0.776393 0.474266 0.415073
v -0.016342 0.160836 0.142743 0.749020 0.749020 0.749020
vn -0.903720 0.161465 -0.396508
v -0.027332 0.139942 0.126415 0.749020 0.749020 0.749020
vn -0.962652 -0.200831 -0.181570
v -0.025864 0.120739 0.125018 0.749020 0.749020 0.749020
vn -0.936270 -0.196834 0.290955
v -0.025282 0.123538 0.133890 0.749020 0.749020 0.749020
# 101 vertices, 0 vertices normals


usemtl material_0
vt 0.435606 0.328182
vt 0.444951 0.349830
vt 0.449291 0.306598
f 13/1/13 12/2/12 18/3/18
vt 0.454647 0.323794
vt 0.467332 0.297326
f 18/3/18 16/4/16 15/5/15
vt 0.470370 0.284470
f 15/5/15 19/6/19 18/3/18
f 18/3/18 12/2/12 16/4/16
vt 0.477255 0.310913
f 17/7/17 15/5/15 16/4/16
vt 0.437464 0.410064
vt 0.445732 0.400645
vt 0.433962 0.364297
f 9/8/9 8/9/8 14/10/14
f 14/10/14 12/2/12 13/1/13
vt 0.430312 0.389442
f 11/11/11 9/8/9 14/10/14
f 14/10/14 8/9/8 12/2/12
vt 0.498113 0.426240
vt 0.486157 0.417484
vt 0.476809 0.435676
f 20/12/20 3/13/3 2/14/2
vt 0.512886 0.401237
vt 0.501141 0.402395
f 24/15/24 23/16/23 20/12/20
f 3/13/3 20/12/20 23/16/23
vt 0.489971 0.288627
f 15/5/15 21/17/21 19/6/19
vt 0.479792 0.448788
f 2/14/2 5/18/5 20/12/20
vt 0.494408 0.275395
f 22/19/22 19/6/19 21/17/21
f 15/5/15 17/7/17 21/17/21
vt 0.432751 0.418987
f 11/11/11 10/20/10 9/8/9
vt 0.452130 0.437431
f 9/8/9 4/21/4 8/9/8
vt 0.462427 0.420621
f 1/22/1 8/9/8 4/21/4
vt 0.440620 0.445166
f 9/8/9 7/23/7 4/21/4
f 10/20/10 7/23/7 9/8/9
vt 0.455904 0.455486
f 7/23/7 6/24/6 4/21/4
f 4/21/4 2/14/2 1/22/1
f 3/13/3 1/22/1 2/14/2
f 4/21/4 5/18/5 2/14/2
f 6/24/6 5/18/5 4/21/4
vt 0.462731 0.350111
vt 0.498959 0.336421
f 47/25/47 32/26/32 17/7/17
vt 0.489240 0.386192
f 47/25/47 45/27/45 32/26/32
f 16/4/16 12/2/12 47/25/47
vt 0.458208 0.392934
f 47/25/47 12/2/12 46/28/46
f 17/7/17 16/4/16 47/25/47
f 8/9/8 46/28/46 12/2/12
f 46/28/46 1/22/1 45/27/45
f 3/13/3 45/27/45 1/22/1
f 45/27/45 47/25/47 46/28/46
f 8/9/8 1/22/1 46/28/46
vt 0.499331 0.306180
f 17/7/17 32/26/32 29/29/29
vt 0.507032 0.374452
f 25/30/25 32/26/32 45/27/45
f 3/13/3 23/16/23 45/27/45
f 45/27/45 23/16/23 25/30/25
vt 0.427370 0.354692
f 36/31/36 11/11/11 14/10/14
vt 0.427258 0.393141
f 34/32/34 11/11/11 36/31/36
vt 0.431208 0.322766
f 36/31/36 13/1/13 37/33/37
vt 0.428231 0.424162
f 35/34/35 7/23/7 10/20/10
f 14/10/14 13/1/13 36/31/36
vt 0.466870 0.278828
vt 0.463680 0.269288
vt 0.442067 0.296199
f 38/35/38 40/36/40 39/37/39
f 19/6/19 22/19/22 38/35/38
f 39/37/39 18/3/18 38/35/38
f 19/6/19 38/35/38 18/3/18
f 39/37/39 13/1/13 18/3/18
f 37/33/37 13/1/13 39/37/39
f 35/34/35 10/20/10 34/32/34
vt 0.513029 0.287287
vt 0.506326 0.294698
f 31/38/31 22/19/22 30/39/30
f 17/7/17 29/29/29 21/17/21
vt 0.515666 0.359946
f 25/30/25 26/40/26 32/26/32
f 21/17/21 30/39/30 22/19/22
f 21/17/21 29/29/29 30/39/30
f 26/40/26 25/30/25 24/15/24
f 23/16/23 24/15/24 25/30/25
vt 0.523358 0.375434
f 26/40/26 24/15/24 27/41/27
vt 0.523884 0.341840
f 28/42/28 26/40/26 27/41/27
vt 0.515320 0.316681
f 33/43/33 32/26/32 26/40/26
f 11/11/11 34/32/34 10/20/10
f 33/43/33 29/29/29 32/26/32
f 30/39/30 29/29/29 33/43/33
f 26/40/26 28/42/28 33/43/33
f 33/43/33 31/38/31 30/39/30
vt 0.503438 0.264042
vt 0.486855 0.261610
f 42/44/42 41/45/41 22/19/22
f 22/19/22 31/38/31 42/44/42
vt 0.523007 0.307375
f 44/46/44 33/43/33 28/42/28
vt 0.515239 0.275049
f 43/47/43 42/44/42 31/38/31
f 38/35/38 41/45/41 40/36/40
f 38/35/38 22/19/22 41/45/41
f 44/46/44 31/38/31 33/43/33
f 43/47/43 31/38/31 44/46/44
f 53/22/53 100/28/100 99/27/99
f 99/27/99 54/13/54 53/22/53
f 75/16/75 54/13/54 99/27/99
f 75/16/75 99/27/99 78/30/78
f 85/26/85 68/7/68 83/29/83
f 85/26/85 78/30/78 99/27/99
f 66/4/66 68/7/68 101/25/101
f 64/2/64 66/4/66 101/25/101
f 101/25/101 99/27/99 100/28/100
f 53/22/53 59/9/59 100/28/100
f 64/2/64 101/25/101 100/28/100
f 100/28/100 59/9/59 64/2/64
f 85/26/85 101/25/101 68/7/68
f 99/27/99 101/25/101 85/26/85
vt 0.497137 0.441741
vt 0.508057 0.430095
f 72/48/72 71/12/71 77/49/77
f 77/49/77 71/12/71 76/15/76
f 78/30/78 79/40/79 76/15/76
f 76/15/76 75/16/75 78/30/78
f 75/16/75 76/15/76 71/12/71
f 70/6/70 74/19/74 73/17/73
f 68/7/68 67/5/67 73/17/73
f 71/12/71 54/13/54 75/16/75
f 73/17/73 67/5/67 70/6/70
f 79/40/79 81/42/81 80/41/80
f 85/26/85 86/43/86 79/40/79
f 79/40/79 78/30/78 85/26/85
f 83/29/83 86/43/86 85/26/85
f 83/29/83 82/39/82 86/43/86
f 82/39/82 73/17/73 74/19/74
f 83/29/83 73/17/73 82/39/82
f 76/15/76 79/40/79 80/41/80
f 74/19/74 84/38/84 82/39/82
f 83/29/83 68/7/68 73/17/73
f 56/18/56 52/14/52 71/12/71
f 58/23/58 60/8/60 55/21/55
f 58/23/58 61/20/61 60/8/60
f 64/2/64 65/10/65 63/1/63
f 61/20/61 62/11/62 60/8/60
f 55/21/55 60/8/60 59/9/59
f 56/18/56 55/21/55 52/14/52
f 56/18/56 57/24/57 55/21/55
f 59/9/59 53/22/53 55/21/55
f 57/24/57 58/23/58 55/21/55
f 59/9/59 60/8/60 65/10/65
f 70/6/70 67/5/67 69/3/69
f 64/2/64 69/3/69 66/4/66
f 71/12/71 72/48/72 56/18/56
f 54/13/54 71/12/71 52/14/52
f 64/2/64 63/1/63 69/3/69
f 60/8/60 62/11/62 65/10/65
f 59/9/59 65/10/65 64/2/64
f 66/4/66 69/3/69 67/5/67
f 67/5/67 68/7/68 66/4/66
f 74/19/74 70/6/70 91/35/91
vt 0.493534 0.455578
f 51/50/51 56/18/56 72/48/72
f 94/45/94 91/35/91 93/36/93
f 74/19/74 91/35/91 94/45/94
vt 0.471647 0.462508
f 51/50/51 50/51/50 56/18/56
f 63/1/63 92/37/92 69/3/69
f 63/1/63 90/33/90 92/37/92
f 93/36/93 91/35/91 92/37/92
vt 0.519637 0.408727
f 76/15/76 95/52/95 77/49/77
f 84/38/84 98/46/98 86/43/86
f 86/43/86 98/46/98 81/42/81
f 84/38/84 97/47/97 98/46/98
f 96/44/96 97/47/97 84/38/84
f 76/15/76 80/41/80 95/52/95
f 77/49/77 51/50/51 72/48/72
f 94/45/94 96/44/96 74/19/74
f 84/38/84 74/19/74 96/44/96
f 69/3/69 92/37/92 91/35/91
f 87/32/87 62/11/62 61/20/61
vt 0.453495 0.467448
f 58/23/58 57/24/57 49/53/49
f 58/23/58 88/34/88 61/20/61
f 61/20/61 88/34/88 87/32/87
vt 0.438534 0.460232
f 49/53/49 48/54/48 58/23/58
f 81/42/81 79/40/79 86/43/86
f 84/38/84 86/43/86 82/39/82
f 50/51/50 57/24/57 56/18/56
f 50/51/50 49/53/49 57/24/57
f 48/54/48 88/34/88 58/23/58
f 91/35/91 70/6/70 69/3/69
f 62/11/62 89/31/89 65/10/65
f 63/1/63 65/10/65 89/31/89
f 62/11/62 87/32/87 89/31/89
f 63/1/63 89/31/89 90/33/90
f 52/14/52 55/21/55 53/22/53
f 53/22/53 54/13/54 52/14/52
# 163 faces, 54 coords texture

# End of File
